STARTFONT 2.1
COMMENT
COMMENT Converted from OpenType font "manrope-regular.otf" by "otf2bdf 3.0".
COMMENT
FONT -FreeType-Manrope-Medium-R-Normal--29-210-100-100-P-133-ISO10646-1
SIZE 21 100 100
FONTBOUNDINGBOX 28 36 -1 -7
STARTPROPERTIES 19
FOUNDRY "FreeType"
FAMILY_NAME "Manrope"
WEIGHT_NAME "Medium"
SLANT "R"
SETWIDTH_NAME "Normal"
ADD_STYLE_NAME ""
PIXEL_SIZE 29
POINT_SIZE 210
RESOLUTION_X 100
RESOLUTION_Y 100
SPACING "P"
AVERAGE_WIDTH 133
CHARSET_REGISTRY "ISO10646"
CHARSET_ENCODING "1"
FONT_ASCENT 30
FONT_DESCENT 8
COPYRIGHT "Copyright 2019-2021 The Manrope Project Authors (https://github.com/sharanda/manrope)"
_OTF_FONTFILE "manrope-regular.otf"
_OTF_PSNAME "Manrope-Regular"
ENDPROPERTIES
CHARS 191
STARTCHAR 0020
ENCODING 32
SWIDTH 205 0
DWIDTH 6 0
BBX 0 0 0 0
BITMAP
ENDCHAR
STARTCHAR 0021
ENCODING 33
SWIDTH 308 0
DWIDTH 9 0
BBX 3 21 3 0
BITMAP
E0
E0
E0
E0
E0
E0
E0
E0
E0
E0
E0
E0
E0
E0
E0
E0
00
00
00
E0
E0
ENDCHAR
STARTCHAR 0022
ENCODING 34
SWIDTH 377 0
DWIDTH 11 0
BBX 7 5 2 16
BITMAP
CE
CE
CE
CE
CE
ENDCHAR
STARTCHAR 0023
ENCODING 35
SWIDTH 925 0
DWIDTH 27 0
BBX 23 21 2 0
BITMAP
0070E0
0060C0
0060C0
0060C0
00E1C0
00C180
3FFFFE
3FFFFE
01C380
018300
018300
018300
030600
FFFFF8
FFFFF8
030600
060C00
060C00
060C00
0E1C00
0C1800
ENDCHAR
STARTCHAR 0024
ENCODING 36
SWIDTH 582 0
DWIDTH 17 0
BBX 15 27 1 -3
BITMAP
0180
0180
0180
0FE0
1FF8
383C
701C
600E
6006
6000
7000
3C00
1F80
03F0
007C
000E
0006
0006
C006
E006
700E
381C
1FF8
07E0
0180
0180
0180
ENDCHAR
STARTCHAR 0025
ENCODING 37
SWIDTH 891 0
DWIDTH 26 0
BBX 23 21 2 0
BITMAP
1E0008
7F801C
E18038
C0C070
C0C0E0
C0C1C0
C0C380
E1C700
7F8E00
1E1C00
003800
0071F0
00E3F8
01C61C
038C0C
070C06
0E0C06
1C0C0C
38061C
7003F8
2001F0
ENDCHAR
STARTCHAR 0026
ENCODING 38
SWIDTH 651 0
DWIDTH 19 0
BBX 18 21 1 0
BITMAP
07E000
1FF000
1C3800
301C00
300000
300000
300000
380000
180000
0E0000
3F0000
7B8600
61C600
60E600
E07600
E01E00
600E00
700E00
383F80
1FF9C0
07E080
ENDCHAR
STARTCHAR 0027
ENCODING 39
SWIDTH 205 0
DWIDTH 6 0
BBX 2 5 2 16
BITMAP
C0
C0
C0
C0
C0
ENDCHAR
STARTCHAR 0028
ENCODING 40
SWIDTH 411 0
DWIDTH 12 0
BBX 7 30 4 -5
BITMAP
04
06
0C
1C
18
30
30
70
60
60
60
C0
C0
C0
C0
C0
C0
C0
C0
E0
60
60
60
30
30
18
18
0C
0E
04
ENDCHAR
STARTCHAR 0029
ENCODING 41
SWIDTH 411 0
DWIDTH 12 0
BBX 7 29 1 -4
BITMAP
E0
70
30
38
18
1C
0C
0C
06
06
06
06
06
06
06
06
06
06
06
06
0C
0C
0C
18
18
30
70
E0
40
ENDCHAR
STARTCHAR 002A
ENCODING 42
SWIDTH 445 0
DWIDTH 13 0
BBX 10 9 1 11
BITMAP
0C00
0C00
0C00
EDC0
FFC0
1C00
1E00
3300
7380
ENDCHAR
STARTCHAR 002B
ENCODING 43
SWIDTH 582 0
DWIDTH 17 0
BBX 13 14 2 4
BITMAP
0600
0600
0600
0600
0600
0600
FFF8
FFF8
0600
0600
0600
0600
0600
0600
ENDCHAR
STARTCHAR 002C
ENCODING 44
SWIDTH 274 0
DWIDTH 8 0
BBX 2 6 2 -3
BITMAP
C0
C0
C0
40
40
C0
ENDCHAR
STARTCHAR 002D
ENCODING 45
SWIDTH 411 0
DWIDTH 12 0
BBX 9 2 2 8
BITMAP
FF80
FF80
ENDCHAR
STARTCHAR 002E
ENCODING 46
SWIDTH 240 0
DWIDTH 7 0
BBX 3 2 2 0
BITMAP
E0
E0
ENDCHAR
STARTCHAR 002F
ENCODING 47
SWIDTH 377 0
DWIDTH 11 0
BBX 7 21 2 0
BITMAP
06
06
06
0E
0C
0C
0C
1C
18
18
18
30
30
30
70
60
60
60
E0
C0
C0
ENDCHAR
STARTCHAR 0030
ENCODING 48
SWIDTH 617 0
DWIDTH 18 0
BBX 14 21 2 0
BITMAP
0FC0
3FE0
7870
6038
E018
C01C
C00C
C00C
C00C
C00C
C00C
C00C
C00C
C00C
C00C
C01C
E018
6038
7870
3FE0
0FC0
ENDCHAR
STARTCHAR 0031
ENCODING 49
SWIDTH 377 0
DWIDTH 11 0
BBX 6 21 2 0
BITMAP
1C
7C
FC
CC
0C
0C
0C
0C
0C
0C
0C
0C
0C
0C
0C
0C
0C
0C
0C
0C
0C
ENDCHAR
STARTCHAR 0032
ENCODING 50
SWIDTH 582 0
DWIDTH 17 0
BBX 14 21 1 0
BITMAP
07C0
1FF0
3878
7018
601C
600C
600C
000C
000C
001C
0038
0070
00E0
01C0
0380
0700
1E00
3800
7000
FFFC
FFFC
ENDCHAR
STARTCHAR 0033
ENCODING 51
SWIDTH 548 0
DWIDTH 16 0
BBX 13 21 1 0
BITMAP
7FF8
7FF8
0038
0070
00E0
01C0
0380
0600
1FC0
0FE0
0070
0038
0018
0018
0018
0018
C018
6038
7070
3FE0
0F80
ENDCHAR
STARTCHAR 0034
ENCODING 52
SWIDTH 582 0
DWIDTH 17 0
BBX 15 21 1 0
BITMAP
01C0
0180
0380
0300
0700
0600
0E00
0C00
1C00
1830
1830
3030
3030
7030
6030
FFFE
FFFE
0030
0030
0030
0030
ENDCHAR
STARTCHAR 0035
ENCODING 53
SWIDTH 582 0
DWIDTH 17 0
BBX 13 21 2 0
BITMAP
7FF0
7FF0
6000
E000
C000
C000
C000
CF80
FFE0
F0F0
E030
0018
0018
0018
0018
C018
C038
E030
70F0
3FE0
0F80
ENDCHAR
STARTCHAR 0036
ENCODING 54
SWIDTH 617 0
DWIDTH 18 0
BBX 14 21 2 0
BITMAP
07C0
1FF0
3878
7018
6000
E000
C000
C000
C7C0
DFF0
F878
E018
E00C
C00C
C00C
C00C
E00C
7018
3878
1FF0
0FC0
ENDCHAR
STARTCHAR 0037
ENCODING 55
SWIDTH 514 0
DWIDTH 15 0
BBX 12 21 1 0
BITMAP
FFF0
FFF0
0030
0070
0060
00E0
00C0
00C0
01C0
0180
0380
0300
0300
0700
0600
0E00
0C00
0C00
1800
1800
3800
ENDCHAR
STARTCHAR 0038
ENCODING 56
SWIDTH 582 0
DWIDTH 17 0
BBX 13 21 2 0
BITMAP
0F80
3FE0
70F0
6030
E038
E038
E038
6030
7070
3FE0
3FE0
7070
E038
C018
C018
C018
C018
E038
7070
3FE0
0F80
ENDCHAR
STARTCHAR 0039
ENCODING 57
SWIDTH 617 0
DWIDTH 18 0
BBX 14 21 2 0
BITMAP
0FC0
3FE0
7870
6018
E01C
C00C
C00C
C00C
C01C
601C
787C
3FEC
0F8C
000C
000C
000C
001C
2038
7870
3FE0
0FC0
ENDCHAR
STARTCHAR 003A
ENCODING 58
SWIDTH 308 0
DWIDTH 9 0
BBX 3 11 3 2
BITMAP
E0
E0
00
00
00
00
00
00
E0
E0
E0
ENDCHAR
STARTCHAR 003B
ENCODING 59
SWIDTH 308 0
DWIDTH 9 0
BBX 3 19 3 -3
BITMAP
E0
E0
E0
00
00
00
00
00
00
00
00
00
00
E0
E0
E0
20
60
C0
ENDCHAR
STARTCHAR 003C
ENCODING 60
SWIDTH 617 0
DWIDTH 18 0
BBX 8 13 4 2
BITMAP
02
07
0E
1C
38
70
E0
60
30
18
0C
06
03
ENDCHAR
STARTCHAR 003D
ENCODING 61
SWIDTH 754 0
DWIDTH 22 0
BBX 15 7 3 7
BITMAP
FFFE
FFFE
0000
0000
0000
FFFE
FFFE
ENDCHAR
STARTCHAR 003E
ENCODING 62
SWIDTH 617 0
DWIDTH 18 0
BBX 7 13 6 2
BITMAP
C0
E0
70
38
1C
0E
06
06
0C
38
70
E0
C0
ENDCHAR
STARTCHAR 003F
ENCODING 63
SWIDTH 514 0
DWIDTH 15 0
BBX 13 21 1 0
BITMAP
0F80
3FE0
7070
6030
6038
E018
0038
0030
0070
00E0
01C0
0380
0700
0600
0600
0000
0000
0000
0600
0600
0600
ENDCHAR
STARTCHAR 0040
ENCODING 64
SWIDTH 891 0
DWIDTH 26 0
BBX 22 22 2 -3
BITMAP
00FC00
03FF80
0F01C0
1C0070
380030
300018
600018
607A0C
61FE0C
C1860C
C3060C
C3020C
C1060C
618718
60FFF8
6079F0
300000
380000
1C0000
0F0100
07FF80
00FE00
ENDCHAR
STARTCHAR 0041
ENCODING 65
SWIDTH 617 0
DWIDTH 18 0
BBX 17 21 1 0
BITMAP
01C000
03C000
03E000
036000
076000
067000
063000
0C3000
0C3800
0C1800
181800
181C00
180C00
300C00
3FFE00
7FFE00
600600
600700
E00300
C00300
C00380
ENDCHAR
STARTCHAR 0042
ENCODING 66
SWIDTH 617 0
DWIDTH 18 0
BBX 15 21 2 0
BITMAP
FFE0
FFF0
C038
C01C
C00C
C00C
C00C
C01C
C038
FFF0
FFF8
C01C
C00C
C00E
C006
C006
C006
C00E
C03C
FFF8
FFF0
ENDCHAR
STARTCHAR 0043
ENCODING 67
SWIDTH 720 0
DWIDTH 21 0
BBX 19 21 1 0
BITMAP
03F800
0FFE00
1E0F00
380380
7001C0
6000C0
E000E0
C00000
C00000
C00000
C00000
C00000
C00000
C00000
E000E0
6000C0
7001C0
380380
1E0F00
0FFE00
03F800
ENDCHAR
STARTCHAR 0044
ENCODING 68
SWIDTH 685 0
DWIDTH 20 0
BBX 16 21 2 0
BITMAP
FFE0
FFF8
C03C
C00C
C00E
C006
C007
C003
C003
C003
C003
C003
C003
C003
C007
C006
C00E
C00C
C03C
FFF8
FFE0
ENDCHAR
STARTCHAR 0045
ENCODING 69
SWIDTH 582 0
DWIDTH 17 0
BBX 13 21 2 0
BITMAP
FFF8
FFF8
C000
C000
C000
C000
C000
C000
C000
FFE0
FFE0
C000
C000
C000
C000
C000
C000
C000
C000
FFF8
FFF8
ENDCHAR
STARTCHAR 0046
ENCODING 70
SWIDTH 514 0
DWIDTH 15 0
BBX 12 21 2 0
BITMAP
FFF0
FFF0
C000
C000
C000
C000
C000
C000
C000
FFC0
FFC0
C000
C000
C000
C000
C000
C000
C000
C000
C000
C000
ENDCHAR
STARTCHAR 0047
ENCODING 71
SWIDTH 720 0
DWIDTH 21 0
BBX 19 21 1 0
BITMAP
03F800
0FFE00
1E0F00
380380
700180
6001C0
E00000
C00000
C00000
C00000
C00FE0
C00FE0
C000E0
E000E0
E000C0
6000C0
7001C0
380380
1E0F00
0FFE00
03F800
ENDCHAR
STARTCHAR 0048
ENCODING 72
SWIDTH 685 0
DWIDTH 20 0
BBX 16 21 2 0
BITMAP
C003
C003
C003
C003
C003
C003
C003
C003
C003
FFFF
FFFF
C003
C003
C003
C003
C003
C003
C003
C003
C003
C003
ENDCHAR
STARTCHAR 0049
ENCODING 73
SWIDTH 240 0
DWIDTH 7 0
BBX 2 21 2 0
BITMAP
C0
C0
C0
C0
C0
C0
C0
C0
C0
C0
C0
C0
C0
C0
C0
C0
C0
C0
C0
C0
C0
ENDCHAR
STARTCHAR 004A
ENCODING 74
SWIDTH 480 0
DWIDTH 14 0
BBX 11 21 0 0
BITMAP
0060
0060
0060
0060
0060
0060
0060
0060
0060
0060
0060
0060
0060
0060
0060
0060
4060
E0E0
71C0
3FC0
1F00
ENDCHAR
STARTCHAR 004B
ENCODING 75
SWIDTH 582 0
DWIDTH 17 0
BBX 15 21 2 0
BITMAP
C01C
C038
C070
C0E0
C1C0
C380
C700
C600
CC00
D800
F800
DC00
CE00
C700
C380
C1C0
C0E0
C070
C038
C01C
C00E
ENDCHAR
STARTCHAR 004C
ENCODING 76
SWIDTH 514 0
DWIDTH 15 0
BBX 12 21 2 0
BITMAP
C000
C000
C000
C000
C000
C000
C000
C000
C000
C000
C000
C000
C000
C000
C000
C000
C000
C000
C000
FFF0
FFF0
ENDCHAR
STARTCHAR 004D
ENCODING 77
SWIDTH 857 0
DWIDTH 25 0
BBX 20 21 2 0
BITMAP
C00030
E00030
E00070
F00070
F000F0
F800F0
D801F0
DC01B0
CC01B0
CC0330
C60330
C60630
C30630
C30C30
C18C30
C19830
C1D830
C0F830
C0F030
C07030
C06030
ENDCHAR
STARTCHAR 004E
ENCODING 78
SWIDTH 685 0
DWIDTH 20 0
BBX 16 21 2 0
BITMAP
E003
E003
F003
F803
D803
DC03
CE03
C603
C703
C383
C183
C1C3
C0E3
C063
C073
C03B
C01B
C01F
C00F
C007
C007
ENDCHAR
STARTCHAR 004F
ENCODING 79
SWIDTH 720 0
DWIDTH 21 0
BBX 19 21 1 0
BITMAP
03F800
0FFE00
1E0F00
380380
7001C0
6000C0
E000E0
C00060
C00060
C00060
C00060
C00060
C00060
C00060
E000E0
6000C0
7001C0
380380
1E0F00
0FFE00
03F800
ENDCHAR
STARTCHAR 0050
ENCODING 80
SWIDTH 617 0
DWIDTH 18 0
BBX 15 21 2 0
BITMAP
FFE0
FFF8
C03C
C00C
C00C
C00E
C006
C00E
C00C
C00C
C03C
FFF8
FFE0
C000
C000
C000
C000
C000
C000
C000
C000
ENDCHAR
STARTCHAR 0051
ENCODING 81
SWIDTH 720 0
DWIDTH 21 0
BBX 19 21 1 0
BITMAP
03F800
0FFE00
1E0F00
380380
7001C0
6000C0
E000E0
C00060
C00060
C00060
C00060
C00060
C00060
C00060
E004E0
600EC0
7007C0
380380
1E0FC0
0FFEE0
03F840
ENDCHAR
STARTCHAR 0052
ENCODING 82
SWIDTH 617 0
DWIDTH 18 0
BBX 15 21 2 0
BITMAP
FFE0
FFF8
C03C
C00C
C00C
C00E
C006
C00E
C00C
C00C
C03C
FFF8
FFE0
C070
C030
C038
C018
C01C
C00C
C00C
C00E
ENDCHAR
STARTCHAR 0053
ENCODING 83
SWIDTH 617 0
DWIDTH 18 0
BBX 16 21 1 0
BITMAP
07E0
1FF8
3C3C
700E
6006
6007
6000
7000
3C00
1FC0
03F8
007C
000E
0007
0003
C003
E007
7006
3C1E
1FFC
07F0
ENDCHAR
STARTCHAR 0054
ENCODING 84
SWIDTH 582 0
DWIDTH 17 0
BBX 17 21 0 0
BITMAP
FFFF80
FFFF80
00C000
00C000
00C000
00C000
00C000
00C000
00C000
00C000
00C000
00C000
00C000
00C000
00C000
00C000
00C000
00C000
00C000
00C000
00C000
ENDCHAR
STARTCHAR 0055
ENCODING 85
SWIDTH 685 0
DWIDTH 20 0
BBX 16 21 2 0
BITMAP
C003
C003
C003
C003
C003
C003
C003
C003
C003
C003
C003
C003
C003
C003
C003
E003
6007
700E
3C1C
1FF8
07E0
ENDCHAR
STARTCHAR 0056
ENCODING 86
SWIDTH 617 0
DWIDTH 18 0
BBX 17 21 0 0
BITMAP
E00180
600180
600380
700300
300300
300700
380600
180600
180E00
1C0C00
0C0C00
0C1800
0E1800
061800
063000
073000
037000
036000
03E000
01E000
01C000
ENDCHAR
STARTCHAR 0057
ENCODING 87
SWIDTH 925 0
DWIDTH 27 0
BBX 26 21 1 0
BITMAP
C01C01C0
C01C0180
C01C0180
E01E0180
60360380
60360300
70370300
30730700
30630600
30630600
38618600
18C18C00
18C18C00
1CC1CC00
0DC0DC00
0D80D800
0D80D800
07807800
07007000
07007000
07007000
ENDCHAR
STARTCHAR 0058
ENCODING 88
SWIDTH 617 0
DWIDTH 18 0
BBX 16 21 1 0
BITMAP
C007
E006
700C
301C
1818
1C30
0C70
0660
07C0
03C0
0380
03C0
07E0
0E60
0C70
1C38
3818
301C
700E
E006
C007
ENDCHAR
STARTCHAR 0059
ENCODING 89
SWIDTH 548 0
DWIDTH 16 0
BBX 16 21 0 0
BITMAP
E007
6006
700E
380C
181C
1C18
0C30
0E70
0660
07E0
03C0
01C0
0180
0180
0180
0180
0180
0180
0180
0180
0180
ENDCHAR
STARTCHAR 005A
ENCODING 90
SWIDTH 617 0
DWIDTH 18 0
BBX 15 21 1 0
BITMAP
7FFE
7FFE
000C
001C
0038
0030
0070
0060
00E0
01C0
0180
0380
0700
0600
0E00
0C00
1C00
3800
3000
7FFE
FFFE
ENDCHAR
STARTCHAR 005B
ENCODING 91
SWIDTH 411 0
DWIDTH 12 0
BBX 6 32 4 -6
BITMAP
FC
FC
C0
C0
C0
C0
C0
C0
C0
C0
C0
C0
C0
C0
C0
C0
C0
C0
C0
C0
C0
C0
C0
C0
C0
C0
C0
C0
C0
C0
FC
FC
ENDCHAR
STARTCHAR 005C
ENCODING 92
SWIDTH 377 0
DWIDTH 11 0
BBX 7 21 2 0
BITMAP
C0
C0
E0
60
60
60
70
30
30
30
18
18
18
1C
0C
0C
0C
0E
06
06
06
ENDCHAR
STARTCHAR 005D
ENCODING 93
SWIDTH 411 0
DWIDTH 12 0
BBX 6 32 2 -6
BITMAP
FC
FC
0C
0C
0C
0C
0C
0C
0C
0C
0C
0C
0C
0C
0C
0C
0C
0C
0C
0C
0C
0C
0C
0C
0C
0C
0C
0C
0C
0C
FC
FC
ENDCHAR
STARTCHAR 005E
ENCODING 94
SWIDTH 685 0
DWIDTH 20 0
BBX 14 8 3 13
BITMAP
0300
0780
0FC0
1CE0
3870
7038
E01C
4008
ENDCHAR
STARTCHAR 005F
ENCODING 95
SWIDTH 651 0
DWIDTH 19 0
BBX 19 2 0 -3
BITMAP
FFFFE0
FFFFE0
ENDCHAR
STARTCHAR 0060
ENCODING 96
SWIDTH 480 0
DWIDTH 14 0
BBX 4 5 5 23
BITMAP
C0
40
60
60
30
ENDCHAR
STARTCHAR 0061
ENCODING 97
SWIDTH 548 0
DWIDTH 16 0
BBX 13 16 1 0
BITMAP
0FC0
3FF0
3838
7018
6018
0018
00F8
1FF8
7E18
7018
E018
C018
E038
6068
7FC8
1F88
ENDCHAR
STARTCHAR 0062
ENCODING 98
SWIDTH 582 0
DWIDTH 17 0
BBX 14 21 2 0
BITMAP
C000
C000
C000
C000
C000
C7C0
DFE0
F870
E038
E01C
C01C
C00C
C00C
C00C
C00C
C01C
E018
E038
F870
DFE0
C7C0
ENDCHAR
STARTCHAR 0063
ENCODING 99
SWIDTH 548 0
DWIDTH 16 0
BBX 14 16 1 0
BITMAP
07C0
1FF0
3838
701C
6008
E000
E000
C000
C000
E000
E000
6008
701C
3838
1FF0
07E0
ENDCHAR
STARTCHAR 0064
ENCODING 100
SWIDTH 582 0
DWIDTH 17 0
BBX 14 21 1 0
BITMAP
000C
000C
000C
000C
000C
0FCC
1FEC
383C
701C
600C
E00C
E00C
C00C
C00C
E00C
E00C
600C
701C
383C
1FEC
07CC
ENDCHAR
STARTCHAR 0065
ENCODING 101
SWIDTH 582 0
DWIDTH 17 0
BBX 15 16 1 0
BITMAP
07C0
1FF0
3838
701C
600C
E00E
E006
FFFE
FFFE
E000
E000
6008
700C
3838
1FF0
07E0
ENDCHAR
STARTCHAR 0066
ENCODING 102
SWIDTH 342 0
DWIDTH 10 0
BBX 9 21 1 0
BITMAP
0F80
1F80
1800
1800
1800
FF80
FF80
1800
1800
1800
1800
1800
1800
1800
1800
1800
1800
1800
1800
1800
1800
ENDCHAR
STARTCHAR 0067
ENCODING 103
SWIDTH 582 0
DWIDTH 17 0
BBX 14 23 1 -7
BITMAP
0FCC
1FFC
383C
701C
600C
E00C
E00C
C00C
C00C
E00C
E00C
600C
701C
383C
1FEC
07CC
000C
000C
000C
701C
3838
1FF0
07C0
ENDCHAR
STARTCHAR 0068
ENCODING 104
SWIDTH 582 0
DWIDTH 17 0
BBX 14 21 2 0
BITMAP
C000
C000
C000
C000
C000
C7C0
DFE0
F870
E038
E018
C018
C01C
C01C
C01C
C01C
C01C
C01C
C01C
C01C
C01C
C01C
ENDCHAR
STARTCHAR 0069
ENCODING 105
SWIDTH 240 0
DWIDTH 7 0
BBX 2 21 2 0
BITMAP
C0
C0
00
00
00
C0
C0
C0
C0
C0
C0
C0
C0
C0
C0
C0
C0
C0
C0
C0
C0
ENDCHAR
STARTCHAR 006A
ENCODING 106
SWIDTH 240 0
DWIDTH 7 0
BBX 5 28 0 -7
BITMAP
18
18
00
00
00
18
18
18
18
18
18
18
18
18
18
18
18
18
18
18
18
18
18
18
18
38
F8
F0
ENDCHAR
STARTCHAR 006B
ENCODING 107
SWIDTH 480 0
DWIDTH 14 0
BBX 13 21 2 0
BITMAP
C000
C000
C000
C000
C000
C070
C0E0
C1C0
C380
C700
CE00
DC00
F800
F800
DC00
CE00
C700
C380
C1C0
C0F0
C078
ENDCHAR
STARTCHAR 006C
ENCODING 108
SWIDTH 240 0
DWIDTH 7 0
BBX 2 21 2 0
BITMAP
C0
C0
C0
C0
C0
C0
C0
C0
C0
C0
C0
C0
C0
C0
C0
C0
C0
C0
C0
C0
C0
ENDCHAR
STARTCHAR 006D
ENCODING 109
SWIDTH 857 0
DWIDTH 25 0
BBX 21 16 2 0
BITMAP
CF87C0
FFCFF0
F0F870
E07038
C07018
C07018
C07018
C07018
C07018
C07018
C07018
C07018
C07018
C07018
C07018
C07018
ENDCHAR
STARTCHAR 006E
ENCODING 110
SWIDTH 582 0
DWIDTH 17 0
BBX 14 16 2 0
BITMAP
C7C0
DFE0
F870
E038
E018
C018
C01C
C01C
C01C
C01C
C01C
C01C
C01C
C01C
C01C
C01C
ENDCHAR
STARTCHAR 006F
ENCODING 111
SWIDTH 582 0
DWIDTH 17 0
BBX 15 16 1 0
BITMAP
07C0
1FF0
3838
701C
600C
E00E
E006
E006
C006
E006
E00E
600C
701C
3838
1FF0
07C0
ENDCHAR
STARTCHAR 0070
ENCODING 112
SWIDTH 582 0
DWIDTH 17 0
BBX 14 23 2 -7
BITMAP
C7C0
DFE0
F870
E038
E01C
C01C
C00C
C00C
C00C
C00C
C01C
E018
E038
F870
DFE0
CFC0
C000
C000
C000
C000
C000
C000
C000
ENDCHAR
STARTCHAR 0071
ENCODING 113
SWIDTH 582 0
DWIDTH 17 0
BBX 14 23 1 -7
BITMAP
0FCC
1FFC
383C
701C
600C
E00C
E00C
C00C
C00C
E00C
E00C
600C
701C
383C
1FEC
07CC
000C
000C
000C
000C
000C
000C
000C
ENDCHAR
STARTCHAR 0072
ENCODING 114
SWIDTH 377 0
DWIDTH 11 0
BBX 8 16 2 0
BITMAP
CF
DF
F8
E0
E0
C0
C0
C0
C0
C0
C0
C0
C0
C0
C0
C0
ENDCHAR
STARTCHAR 0073
ENCODING 115
SWIDTH 514 0
DWIDTH 15 0
BBX 13 16 1 0
BITMAP
0FC0
3FE0
7070
6038
6018
6000
7C00
1F80
03F0
0078
0018
4018
E018
7038
3FF0
0FC0
ENDCHAR
STARTCHAR 0074
ENCODING 116
SWIDTH 411 0
DWIDTH 12 0
BBX 11 20 0 0
BITMAP
0C00
0C00
0C00
0C00
FFE0
FFE0
0C00
0C00
0C00
0C00
0C00
0C00
0C00
0C00
0C00
0C00
0C00
0E00
07E0
03E0
ENDCHAR
STARTCHAR 0075
ENCODING 117
SWIDTH 582 0
DWIDTH 17 0
BBX 13 16 2 0
BITMAP
C018
C018
C018
C018
C018
C018
C018
C018
C018
C018
C018
E018
E038
7078
3FD8
0F98
ENDCHAR
STARTCHAR 0076
ENCODING 118
SWIDTH 514 0
DWIDTH 15 0
BBX 13 16 1 0
BITMAP
C018
C018
E030
6030
6070
3060
3060
30E0
18C0
18C0
1980
0D80
0D80
0F00
0700
0700
ENDCHAR
STARTCHAR 0077
ENCODING 119
SWIDTH 754 0
DWIDTH 22 0
BBX 21 16 1 0
BITMAP
C06018
C07030
C0F030
60F030
60D860
60D860
319860
3198E0
318CC0
3B0CC0
1B0DC0
1B0780
1E0780
0E0780
0E0300
0C0300
ENDCHAR
STARTCHAR 0078
ENCODING 120
SWIDTH 514 0
DWIDTH 15 0
BBX 14 16 1 0
BITMAP
C01C
6038
7070
3860
18E0
0DC0
0F80
0700
0700
0F80
1DC0
18E0
3060
7030
E038
C01C
ENDCHAR
STARTCHAR 0079
ENCODING 121
SWIDTH 514 0
DWIDTH 15 0
BBX 14 23 1 -7
BITMAP
C00C
C018
E018
6038
7030
3030
3060
1860
1860
1CC0
0CC0
0DC0
0780
0780
0780
0300
0300
0600
0600
0E00
0C00
0C00
1C00
ENDCHAR
STARTCHAR 007A
ENCODING 122
SWIDTH 514 0
DWIDTH 15 0
BBX 13 16 1 0
BITMAP
FFF8
FFF8
0070
0060
00C0
01C0
0380
0300
0600
0E00
1C00
1800
3000
7000
FFF8
FFF8
ENDCHAR
STARTCHAR 007B
ENCODING 123
SWIDTH 411 0
DWIDTH 12 0
BBX 7 32 4 -6
BITMAP
1E
3E
30
30
30
30
30
30
30
30
30
30
30
30
60
E0
E0
60
30
30
30
30
30
30
30
30
30
30
30
30
3E
1E
ENDCHAR
STARTCHAR 007C
ENCODING 124
SWIDTH 240 0
DWIDTH 7 0
BBX 2 21 3 0
BITMAP
C0
C0
C0
C0
C0
C0
C0
C0
C0
C0
C0
C0
C0
C0
C0
C0
C0
C0
C0
C0
C0
ENDCHAR
STARTCHAR 007D
ENCODING 125
SWIDTH 411 0
DWIDTH 12 0
BBX 7 32 1 -6
BITMAP
F0
F8
18
18
18
18
18
18
18
18
18
18
18
1C
0C
0E
06
0C
1C
18
18
18
18
18
18
18
18
18
18
18
F8
F0
ENDCHAR
STARTCHAR 007E
ENCODING 126
SWIDTH 651 0
DWIDTH 19 0
BBX 13 4 3 7
BITMAP
7C18
7FB8
E3F0
E0F0
ENDCHAR
STARTCHAR 00A0
ENCODING 160
SWIDTH 205 0
DWIDTH 6 0
BBX 0 0 0 0
BITMAP
ENDCHAR
STARTCHAR 00A1
ENCODING 161
SWIDTH 308 0
DWIDTH 9 0
BBX 3 21 3 -5
BITMAP
E0
E0
00
00
00
E0
E0
E0
E0
E0
E0
E0
E0
E0
E0
E0
E0
E0
E0
E0
E0
ENDCHAR
STARTCHAR 00A2
ENCODING 162
SWIDTH 548 0
DWIDTH 16 0
BBX 14 22 1 -1
BITMAP
0180
0180
0180
0FE0
1FF8
3838
701C
6008
E000
E000
C000
E000
E000
E000
6000
701C
3838
1FF8
0FE0
0180
0180
0180
ENDCHAR
STARTCHAR 00A3
ENCODING 163
SWIDTH 582 0
DWIDTH 17 0
BBX 14 21 1 0
BITMAP
01E0
07F8
0E18
0C0C
0C0C
0C04
0C00
0C00
0C00
0C00
FFE0
FFE0
0C00
0C00
0C00
0C00
0C00
1C00
1C00
FFFC
FFFC
ENDCHAR
STARTCHAR 00A4
ENCODING 164
SWIDTH 651 0
DWIDTH 19 0
BBX 17 17 1 2
BITMAP
400100
E3E380
7FFF00
3C1E00
300E00
700600
600300
600300
600300
600300
600300
700600
300E00
3C1E00
7FFF00
E3E380
400100
ENDCHAR
STARTCHAR 00A5
ENCODING 165
SWIDTH 548 0
DWIDTH 16 0
BBX 16 21 0 0
BITMAP
E007
6006
700E
300C
181C
1C18
0C38
0E30
0660
07E0
03C0
03C0
1FFC
1FFC
0180
0180
1FFC
1FFC
0180
0180
0180
ENDCHAR
STARTCHAR 00A6
ENCODING 166
SWIDTH 240 0
DWIDTH 7 0
BBX 2 26 3 -5
BITMAP
C0
C0
C0
C0
C0
C0
C0
C0
C0
C0
C0
00
00
00
00
C0
C0
C0
C0
C0
C0
C0
C0
C0
C0
C0
ENDCHAR
STARTCHAR 00A7
ENCODING 167
SWIDTH 514 0
DWIDTH 15 0
BBX 13 24 1 -5
BITMAP
0F80
3FE0
70F0
6030
6030
6000
7800
1F80
3FF0
7078
E018
E018
E018
7838
3F70
07E0
00F0
0038
0018
6018
7038
3870
3FE0
0FC0
ENDCHAR
STARTCHAR 00A8
ENCODING 168
SWIDTH 514 0
DWIDTH 15 0
BBX 8 2 3 24
BITMAP
E3
E3
ENDCHAR
STARTCHAR 00A9
ENCODING 169
SWIDTH 788 0
DWIDTH 23 0
BBX 22 22 1 -1
BITMAP
01FC00
07FF00
0F0780
1C01E0
380060
70F870
61FE38
E38618
C30218
C60018
C6001C
C6001C
C60018
C30218
E38618
61FE38
70F870
380060
1C01E0
0F07C0
07FF00
00FC00
ENDCHAR
STARTCHAR 00AA
ENCODING 170
SWIDTH 308 0
DWIDTH 9 0
BBX 7 8 1 8
BITMAP
3C
6E
06
3E
E6
C6
CE
7A
ENDCHAR
STARTCHAR 00AB
ENCODING 171
SWIDTH 548 0
DWIDTH 16 0
BBX 12 13 2 1
BITMAP
0420
0C60
1CE0
18C0
3180
6300
E700
6300
3180
18C0
0C60
0E70
0420
ENDCHAR
STARTCHAR 00AC
ENCODING 172
SWIDTH 617 0
DWIDTH 18 0
BBX 14 5 2 6
BITMAP
FFFC
FFFC
000C
000C
000C
ENDCHAR
STARTCHAR 00AD
ENCODING 173
SWIDTH 411 0
DWIDTH 12 0
BBX 9 2 2 8
BITMAP
FF80
FF80
ENDCHAR
STARTCHAR 00AE
ENCODING 174
SWIDTH 617 0
DWIDTH 18 0
BBX 14 15 2 8
BITMAP
0380
1FE0
3870
6018
678C
C44C
C44C
C78C
C48C
C48C
6458
7018
3870
1FE0
0380
ENDCHAR
STARTCHAR 00AF
ENCODING 175
SWIDTH 480 0
DWIDTH 14 0
BBX 8 2 3 24
BITMAP
FF
FF
ENDCHAR
STARTCHAR 00B0
ENCODING 176
SWIDTH 445 0
DWIDTH 13 0
BBX 10 10 1 11
BITMAP
1E00
7F80
61C0
C0C0
C0C0
C0C0
C0C0
61C0
7F80
1E00
ENDCHAR
STARTCHAR 00B1
ENCODING 177
SWIDTH 617 0
DWIDTH 18 0
BBX 14 14 2 2
BITMAP
0300
0300
0300
0300
FFFC
FFFC
0300
0300
0300
0300
0000
0000
FFFC
FFFC
ENDCHAR
STARTCHAR 00B2
ENCODING 178
SWIDTH 411 0
DWIDTH 12 0
BBX 9 13 1 8
BITMAP
1E00
7F00
6180
4180
0180
0180
0300
0700
0C00
1800
3000
7F80
FF80
ENDCHAR
STARTCHAR 00B3
ENCODING 179
SWIDTH 377 0
DWIDTH 11 0
BBX 9 14 1 7
BITMAP
7F00
7F00
0700
0C00
1800
3E00
1700
0300
0180
0180
C100
6300
7E00
0800
ENDCHAR
STARTCHAR 00B4
ENCODING 180
SWIDTH 480 0
DWIDTH 14 0
BBX 3 5 6 23
BITMAP
60
60
C0
C0
C0
ENDCHAR
STARTCHAR 00B5
ENCODING 181
SWIDTH 617 0
DWIDTH 18 0
BBX 14 23 2 -7
BITMAP
C01C
C01C
C01C
C01C
C01C
C01C
C01C
C01C
C01C
C01C
C01C
E01C
E03C
F87C
FFEC
CF8C
C000
C000
C000
C000
C000
C000
C000
ENDCHAR
STARTCHAR 00B6
ENCODING 182
SWIDTH 651 0
DWIDTH 19 0
BBX 14 25 2 -4
BITMAP
0FCC
3FCC
7FCC
7FCC
FFCC
FFCC
FFCC
FFCC
FFCC
7FCC
7FCC
3FCC
0FCC
00CC
00CC
00CC
00CC
00CC
00CC
00CC
00CC
00CC
00CC
00CC
00CC
ENDCHAR
STARTCHAR 00B7
ENCODING 183
SWIDTH 240 0
DWIDTH 7 0
BBX 3 3 2 8
BITMAP
C0
E0
E0
ENDCHAR
STARTCHAR 00B8
ENCODING 184
SWIDTH 411 0
DWIDTH 12 0
BBX 4 7 4 -7
BITMAP
60
40
E0
30
30
F0
E0
ENDCHAR
STARTCHAR 00B9
ENCODING 185
SWIDTH 308 0
DWIDTH 9 0
BBX 4 13 2 8
BITMAP
70
F0
B0
30
30
30
30
30
30
30
30
30
30
ENDCHAR
STARTCHAR 00BA
ENCODING 186
SWIDTH 342 0
DWIDTH 10 0
BBX 8 8 1 8
BITMAP
3C
7E
C3
C3
C3
C3
66
7E
ENDCHAR
STARTCHAR 00BB
ENCODING 187
SWIDTH 548 0
DWIDTH 16 0
BBX 11 12 2 1
BITMAP
4200
C600
6300
3180
18C0
1C60
0C60
18C0
39C0
3180
6300
C600
ENDCHAR
STARTCHAR 00BC
ENCODING 188
SWIDTH 960 0
DWIDTH 28 0
BBX 23 21 2 0
BITMAP
700040
F000E0
B001C0
300180
300300
300700
300E00
300C00
301830
303060
307060
3060C0
30C0C0
01808C
03818C
07010C
06030C
0C03FE
1803FE
38000C
10000C
ENDCHAR
STARTCHAR 00BD
ENCODING 189
SWIDTH 925 0
DWIDTH 27 0
BBX 24 21 2 0
BITMAP
700040
F000E0
B001C0
300180
300300
300700
300E00
300C10
3018FC
3030C6
307183
306183
30C003
018002
038006
07001C
060038
0C0070
1800E0
3801FF
1001FF
ENDCHAR
STARTCHAR 00BE
ENCODING 190
SWIDTH 994 0
DWIDTH 29 0
BBX 26 21 1 0
BITMAP
7F000800
7F001C00
07003800
0C003000
18006000
3E00E000
1701C000
03018000
01830600
01860C00
C10E0C00
630C1800
7E181800
08303100
00703100
00E06100
00C06100
01807FC0
03007FC0
07000100
02000100
ENDCHAR
STARTCHAR 00BF
ENCODING 191
SWIDTH 514 0
DWIDTH 15 0
BBX 13 22 1 -6
BITMAP
0300
0300
0300
0000
0000
0000
0300
0300
0300
0700
0E00
1C00
3800
7000
6000
E000
E018
6038
6030
7870
3FE0
0F80
ENDCHAR
STARTCHAR 00C0
ENCODING 192
SWIDTH 617 0
DWIDTH 18 0
BBX 17 28 1 0
BITMAP
020000
030000
030000
018000
018000
000000
000000
01C000
03C000
03E000
036000
076000
067000
063000
0E3000
0C3800
0C1800
181800
181C00
180C00
300C00
3FFE00
7FFE00
600600
600700
E00300
C00300
C00380
ENDCHAR
STARTCHAR 00C1
ENCODING 193
SWIDTH 617 0
DWIDTH 18 0
BBX 17 28 1 0
BITMAP
006000
006000
00C000
00C000
008000
000000
000000
01C000
03C000
03E000
036000
076000
067000
063000
0C3000
0C3800
0C1800
181800
181C00
180C00
300C00
3FFE00
7FFE00
600600
600700
E00300
C00300
C00380
ENDCHAR
STARTCHAR 00C2
ENCODING 194
SWIDTH 617 0
DWIDTH 18 0
BBX 17 27 1 0
BITMAP
01C000
03E000
066000
0C3000
000000
000000
01C000
03C000
03E000
036000
076000
067000
063000
0C3000
0C3800
0C1800
181800
181C00
180C00
300C00
3FFE00
7FFE00
600600
600700
E00300
C00300
C00380
ENDCHAR
STARTCHAR 00C3
ENCODING 195
SWIDTH 617 0
DWIDTH 18 0
BBX 17 28 1 0
BITMAP
060000
0F9800
09F000
006000
000000
000000
000000
01C000
03C000
03E000
036000
076000
067000
063000
0C3000
0C3800
0C1800
181800
181C00
180C00
300C00
3FFE00
7FFE00
600600
600700
E00300
C00300
C00380
ENDCHAR
STARTCHAR 00C4
ENCODING 196
SWIDTH 617 0
DWIDTH 18 0
BBX 17 26 1 0
BITMAP
0E3000
0E3000
000000
000000
000000
01C000
03C000
03E000
036000
076000
067000
063000
0C3000
0C3800
0C1800
181800
181C00
180C00
300C00
3FFE00
7FFE00
600600
600700
E00300
C00300
C00380
ENDCHAR
STARTCHAR 00C5
ENCODING 197
SWIDTH 617 0
DWIDTH 18 0
BBX 17 29 1 0
BITMAP
01C000
07E000
062000
062000
03E000
03C000
000000
000000
01C000
03C000
03E000
036000
076000
067000
063000
0C3000
0C3800
0C1800
181800
181C00
180C00
300C00
3FFE00
7FFE00
600600
600700
E00300
C00300
C00380
ENDCHAR
STARTCHAR 00C6
ENCODING 198
SWIDTH 925 0
DWIDTH 27 0
BBX 24 21 1 0
BITMAP
01FFFF
03FFFF
031800
031800
061800
061800
061800
0C1800
0C1800
0C1FFE
181FFE
181800
181800
301800
3FF800
7FF800
601800
601800
E01800
C01FFF
C01FFF
ENDCHAR
STARTCHAR 00C7
ENCODING 199
SWIDTH 720 0
DWIDTH 21 0
BBX 19 28 1 -7
BITMAP
03F800
0FFE00
1E0F00
380380
7001C0
6000C0
E000E0
C00000
C00000
C00000
C00000
C00000
C00000
C00000
E000E0
6000C0
7001C0
380380
1E0F00
0FFE00
03F800
006000
006000
007000
003000
003000
00F000
004000
ENDCHAR
STARTCHAR 00C8
ENCODING 200
SWIDTH 582 0
DWIDTH 17 0
BBX 13 28 2 0
BITMAP
0400
0600
0600
0300
0300
0000
0000
FFF8
FFF8
C000
C000
C000
C000
C000
C000
C000
FFE0
FFE0
C000
C000
C000
C000
C000
C000
C000
C000
FFF8
FFF8
ENDCHAR
STARTCHAR 00C9
ENCODING 201
SWIDTH 582 0
DWIDTH 17 0
BBX 13 28 2 0
BITMAP
0080
0180
0180
0300
0300
0000
0000
FFF8
FFF8
C000
C000
C000
C000
C000
C000
C000
FFE0
FFE0
C000
C000
C000
C000
C000
C000
C000
C000
FFF8
FFF8
ENDCHAR
STARTCHAR 00CA
ENCODING 202
SWIDTH 582 0
DWIDTH 17 0
BBX 13 27 2 0
BITMAP
0700
0F80
1DC0
38C0
0000
0000
FFF8
FFF8
C000
C000
C000
C000
C000
C000
C000
FFE0
FFE0
C000
C000
C000
C000
C000
C000
C000
C000
FFF8
FFF8
ENDCHAR
STARTCHAR 00CB
ENCODING 203
SWIDTH 582 0
DWIDTH 17 0
BBX 13 26 2 0
BITMAP
38C0
38C0
0000
0000
0000
FFF8
FFF8
C000
C000
C000
C000
C000
C000
C000
FFE0
FFE0
C000
C000
C000
C000
C000
C000
C000
C000
FFF8
FFF8
ENDCHAR
STARTCHAR 00CC
ENCODING 204
SWIDTH 240 0
DWIDTH 7 0
BBX 3 28 1 0
BITMAP
C0
C0
60
60
60
00
00
60
60
60
60
60
60
60
60
60
60
60
60
60
60
60
60
60
60
60
60
60
ENDCHAR
STARTCHAR 00CD
ENCODING 205
SWIDTH 240 0
DWIDTH 7 0
BBX 4 28 2 0
BITMAP
30
30
60
60
40
00
00
C0
C0
C0
C0
C0
C0
C0
C0
C0
C0
C0
C0
C0
C0
C0
C0
C0
C0
C0
C0
C0
ENDCHAR
STARTCHAR 00CE
ENCODING 206
SWIDTH 240 0
DWIDTH 7 0
BBX 8 27 -1 0
BITMAP
1C
3E
67
E3
00
00
18
18
18
18
18
18
18
18
18
18
18
18
18
18
18
18
18
18
18
18
18
ENDCHAR
STARTCHAR 00CF
ENCODING 207
SWIDTH 240 0
DWIDTH 7 0
BBX 8 26 -1 0
BITMAP
E3
E3
00
00
00
18
18
18
18
18
18
18
18
18
18
18
18
18
18
18
18
18
18
18
18
18
ENDCHAR
STARTCHAR 00D0
ENCODING 208
SWIDTH 651 0
DWIDTH 19 0
BBX 18 21 0 0
BITMAP
3FF000
3FFC00
300F00
300300
300380
300180
3001C0
3000C0
3000C0
FF80C0
FF80C0
3000C0
3000C0
3001C0
3001C0
300180
300380
300700
300E00
3FFC00
3FF000
ENDCHAR
STARTCHAR 00D1
ENCODING 209
SWIDTH 685 0
DWIDTH 20 0
BBX 16 27 2 0
BITMAP
0700
0F98
08F8
0030
0000
0000
E003
E003
F003
F803
D803
DC03
CE03
C603
C703
C383
C183
C1C3
C0E3
C063
C073
C03B
C01B
C01F
C00F
C007
C007
ENDCHAR
STARTCHAR 00D2
ENCODING 210
SWIDTH 720 0
DWIDTH 21 0
BBX 19 28 1 0
BITMAP
018000
018000
008000
00C000
00C000
000000
000000
03F800
0FFE00
1E0F00
380380
7001C0
6000C0
E000E0
C00060
C00060
C00060
C00060
C00060
C00060
C00060
E000E0
6000C0
7001C0
380380
1E0F00
0FFE00
03F800
ENDCHAR
STARTCHAR 00D3
ENCODING 211
SWIDTH 720 0
DWIDTH 21 0
BBX 19 28 1 0
BITMAP
001000
003000
003000
006000
006000
000000
000000
03F800
0FFE00
1E0F00
380380
7001C0
6000C0
E000E0
C00060
C00060
C00060
C00060
C00060
C00060
C00060
E000E0
6000C0
7001C0
380380
1E0F00
0FFE00
03F800
ENDCHAR
STARTCHAR 00D4
ENCODING 212
SWIDTH 720 0
DWIDTH 21 0
BBX 19 27 1 0
BITMAP
00E000
01B000
03B800
031800
000000
000000
03F800
0FFE00
1E0F00
380380
7001C0
6000C0
E000E0
C00060
C00060
C00060
C00060
C00060
C00060
C00060
E000E0
6000C0
7001C0
380380
1E0F00
0FFE00
03F800
ENDCHAR
STARTCHAR 00D5
ENCODING 213
SWIDTH 720 0
DWIDTH 21 0
BBX 19 27 1 0
BITMAP
038000
03C400
067C00
063800
000000
000000
03F800
0FFE00
1E0F00
380380
7001C0
6000C0
E000E0
C00060
C00060
C00060
C00060
C00060
C00060
C00060
E000E0
6000C0
7001C0
380380
1E0F00
0FFE00
03F800
ENDCHAR
STARTCHAR 00D6
ENCODING 214
SWIDTH 720 0
DWIDTH 21 0
BBX 19 26 1 0
BITMAP
031800
031800
000000
000000
000000
03F800
0FFE00
1E0F00
380380
7001C0
6000C0
E000E0
C00060
C00060
C00060
C00060
C00060
C00060
C00060
E000E0
6000C0
7001C0
380380
1E0F00
0FFE00
03F800
ENDCHAR
STARTCHAR 00D7
ENCODING 215
SWIDTH 480 0
DWIDTH 14 0
BBX 10 10 2 5
BITMAP
4040
E0C0
7180
3B00
1E00
0E00
1F00
3380
61C0
C0C0
ENDCHAR
STARTCHAR 00D8
ENCODING 216
SWIDTH 720 0
DWIDTH 21 0
BBX 20 21 1 0
BITMAP
03F820
0FFE70
1E0FE0
3803C0
7003C0
6007C0
E00EE0
C01C60
C03860
C07060
C0E060
C1C060
C38060
C70060
E600E0
6C00C0
7801C0
380380
7E0F00
EFFE00
C3F800
ENDCHAR
STARTCHAR 00D9
ENCODING 217
SWIDTH 685 0
DWIDTH 20 0
BBX 16 28 2 0
BITMAP
0300
0300
0180
0180
0080
0000
0000
C003
C003
C003
C003
C003
C003
C003
C003
C003
C003
C003
C003
C003
C003
C003
E003
6007
700E
3C1C
1FF8
07E0
ENDCHAR
STARTCHAR 00DA
ENCODING 218
SWIDTH 685 0
DWIDTH 20 0
BBX 16 28 2 0
BITMAP
0040
00C0
00C0
0180
0180
0000
0000
C003
C003
C003
C003
C003
C003
C003
C003
C003
C003
C003
C003
C003
C003
C003
E003
6007
700E
3C1C
1FF8
07E0
ENDCHAR
STARTCHAR 00DB
ENCODING 219
SWIDTH 685 0
DWIDTH 20 0
BBX 16 27 2 0
BITMAP
01C0
03C0
0660
0C30
0000
0000
C003
C003
C003
C003
C003
C003
C003
C003
C003
C003
C003
C003
C003
C003
C003
E003
6007
700E
3C1C
1FF8
07E0
ENDCHAR
STARTCHAR 00DC
ENCODING 220
SWIDTH 685 0
DWIDTH 20 0
BBX 16 26 2 0
BITMAP
0E30
0E30
0000
0000
0000
C003
C003
C003
C003
C003
C003
C003
C003
C003
C003
C003
C003
C003
C003
C003
E003
6007
700E
3C1C
1FF8
07E0
ENDCHAR
STARTCHAR 00DD
ENCODING 221
SWIDTH 548 0
DWIDTH 16 0
BBX 16 28 0 0
BITMAP
00C0
00C0
00C0
0180
0180
0000
0000
E007
6006
700E
380C
181C
1C18
0C30
0E70
0660
07E0
03C0
01C0
0180
0180
0180
0180
0180
0180
0180
0180
0180
ENDCHAR
STARTCHAR 00DE
ENCODING 222
SWIDTH 582 0
DWIDTH 17 0
BBX 14 21 2 0
BITMAP
C000
C000
C000
C000
FFC0
FFF0
C038
C01C
C00C
C00C
C00C
C00C
C00C
C01C
C038
FFF0
FFC0
C000
C000
C000
C000
ENDCHAR
STARTCHAR 00DF
ENCODING 223
SWIDTH 582 0
DWIDTH 17 0
BBX 14 21 2 0
BITMAP
1F80
3FC0
70E0
E070
C070
C030
C030
C070
C0E0
C3C0
C3E0
C078
C018
C01C
C01C
C01C
C01C
C018
C878
CFF0
CFC0
ENDCHAR
STARTCHAR 00E0
ENCODING 224
SWIDTH 548 0
DWIDTH 16 0
BBX 13 23 1 0
BITMAP
0600
0600
0600
0300
0300
0000
0000
0FC0
3FF0
3838
7018
6018
0018
00F8
1FF8
7E18
7018
E018
C018
E038
6068
7FC8
1F88
ENDCHAR
STARTCHAR 00E1
ENCODING 225
SWIDTH 548 0
DWIDTH 16 0
BBX 13 23 1 0
BITMAP
00C0
00C0
0180
0180
0100
0000
0000
0FC0
3FF0
3838
7018
6018
0018
00F8
1FF8
7E18
7018
E018
C018
E038
6068
7FC8
1F88
ENDCHAR
STARTCHAR 00E2
ENCODING 226
SWIDTH 548 0
DWIDTH 16 0
BBX 13 22 1 0
BITMAP
0380
07C0
0CC0
1C60
0000
0000
0FC0
3FF0
3838
7018
6018
0018
00F8
1FF8
7E18
7018
E018
C018
E038
6068
7FC8
1F88
ENDCHAR
STARTCHAR 00E3
ENCODING 227
SWIDTH 548 0
DWIDTH 16 0
BBX 13 22 1 0
BITMAP
0C00
1F30
1BF0
18E0
0000
0000
0FC0
3FF0
3838
7018
6018
0018
00F8
1FF8
7E18
7018
E018
C018
E038
6068
7FC8
1F88
ENDCHAR
STARTCHAR 00E4
ENCODING 228
SWIDTH 548 0
DWIDTH 16 0
BBX 13 21 1 0
BITMAP
1C60
1C60
0000
0000
0000
0FC0
3FF0
3838
7018
6018
0018
00F8
1FF8
3E18
7018
E018
C018
E038
6068
7FC8
1F88
ENDCHAR
STARTCHAR 00E5
ENCODING 229
SWIDTH 548 0
DWIDTH 16 0
BBX 13 24 1 0
BITMAP
0100
07C0
0CC0
0C60
0CC0
07C0
0300
0000
0FC0
3FF0
3838
7018
6018
0018
00F8
1FF8
7E18
7018
E018
C018
E038
6068
7FC8
1F88
ENDCHAR
STARTCHAR 00E6
ENCODING 230
SWIDTH 925 0
DWIDTH 27 0
BBX 25 16 1 0
BITMAP
0FC0F800
1FF3FE00
387F0700
701E0300
201C0180
001C0180
001C0180
0FFFFF80
3FFFFF80
701C0000
E01C0000
C01C0100
C03E0380
60770700
7FE3FE00
1F80F800
ENDCHAR
STARTCHAR 00E7
ENCODING 231
SWIDTH 548 0
DWIDTH 16 0
BBX 14 23 1 -7
BITMAP
07C0
1FF0
3838
701C
6008
E000
E000
C000
C000
E000
E000
6008
701C
3838
1FF0
07E0
0100
0300
0380
00C0
00C0
0780
0300
ENDCHAR
STARTCHAR 00E8
ENCODING 232
SWIDTH 582 0
DWIDTH 17 0
BBX 15 23 1 0
BITMAP
0600
0200
0300
0300
0180
0000
0000
07C0
1FF0
3838
701C
600C
E00E
E006
FFFE
FFFE
E000
E000
6008
700C
3838
1FF0
07E0
ENDCHAR
STARTCHAR 00E9
ENCODING 233
SWIDTH 582 0
DWIDTH 17 0
BBX 15 23 1 0
BITMAP
0060
00C0
00C0
0080
0180
0000
0000
07C0
1FF0
3838
701C
600C
E00E
E006
FFFE
FFFE
E000
E000
6008
700C
3838
1FF0
07E0
ENDCHAR
STARTCHAR 00EA
ENCODING 234
SWIDTH 582 0
DWIDTH 17 0
BBX 15 22 1 0
BITMAP
0380
07C0
0EE0
0C70
0000
0000
07C0
1FF0
3838
701C
600C
E00E
E006
FFFE
FFFE
E000
E000
6008
700C
3838
1FF0
07E0
ENDCHAR
STARTCHAR 00EB
ENCODING 235
SWIDTH 582 0
DWIDTH 17 0
BBX 15 21 1 0
BITMAP
0C70
0C70
0000
0000
0000
07C0
1FF0
3838
701C
600C
E00E
E006
FFFE
FFFE
E000
E000
6008
700C
3838
1FF0
07E0
ENDCHAR
STARTCHAR 00EC
ENCODING 236
SWIDTH 240 0
DWIDTH 7 0
BBX 3 23 1 0
BITMAP
C0
C0
60
60
60
00
00
60
60
60
60
60
60
60
60
60
60
60
60
60
60
60
60
ENDCHAR
STARTCHAR 00ED
ENCODING 237
SWIDTH 240 0
DWIDTH 7 0
BBX 4 23 2 0
BITMAP
30
30
60
60
40
00
00
C0
C0
C0
C0
C0
C0
C0
C0
C0
C0
C0
C0
C0
C0
C0
C0
ENDCHAR
STARTCHAR 00EE
ENCODING 238
SWIDTH 240 0
DWIDTH 7 0
BBX 8 22 -1 0
BITMAP
1C
36
77
E3
00
00
18
18
18
18
18
18
18
18
18
18
18
18
18
18
18
18
ENDCHAR
STARTCHAR 00EF
ENCODING 239
SWIDTH 240 0
DWIDTH 7 0
BBX 8 21 -1 0
BITMAP
E3
E3
00
00
00
18
18
18
18
18
18
18
18
18
18
18
18
18
18
18
18
ENDCHAR
STARTCHAR 00F0
ENCODING 240
SWIDTH 582 0
DWIDTH 17 0
BBX 15 23 1 0
BITMAP
0030
0330
07E0
00F0
01B8
0118
000C
07CC
1FFC
383E
701E
600E
E00E
C00E
C006
C006
C00E
E00E
600C
701C
3838
1FF0
07C0
ENDCHAR
STARTCHAR 00F1
ENCODING 241
SWIDTH 582 0
DWIDTH 17 0
BBX 14 22 2 0
BITMAP
1C00
3E20
33E0
31C0
0000
0000
C7C0
DFE0
F870
E038
E018
C018
C01C
C01C
C01C
C01C
C01C
C01C
C01C
C01C
C01C
C01C
ENDCHAR
STARTCHAR 00F2
ENCODING 242
SWIDTH 582 0
DWIDTH 17 0
BBX 15 23 1 0
BITMAP
0600
0600
0200
0300
0300
0000
0000
07C0
1FF0
3838
701C
600C
E00E
E006
E006
C006
E006
E00E
600C
701C
3838
1FF0
07C0
ENDCHAR
STARTCHAR 00F3
ENCODING 243
SWIDTH 582 0
DWIDTH 17 0
BBX 15 23 1 0
BITMAP
00C0
00C0
0080
0180
0180
0000
0000
07C0
1FF0
3838
701C
600C
E00E
E006
E006
C006
E006
E00E
600C
701C
3838
1FF0
07C0
ENDCHAR
STARTCHAR 00F4
ENCODING 244
SWIDTH 582 0
DWIDTH 17 0
BBX 15 22 1 0
BITMAP
0380
07C0
0660
0C70
0000
0000
07C0
1FF0
3838
701C
600C
E00E
E006
E006
C006
E006
E00E
600C
701C
3838
1FF0
07C0
ENDCHAR
STARTCHAR 00F5
ENCODING 245
SWIDTH 582 0
DWIDTH 17 0
BBX 15 22 1 0
BITMAP
0E00
1F10
19F0
18E0
0000
0000
07C0
1FF0
3838
701C
600C
E00E
E006
E006
C006
E006
E00E
600C
701C
3838
1FF0
07C0
ENDCHAR
STARTCHAR 00F6
ENCODING 246
SWIDTH 582 0
DWIDTH 17 0
BBX 15 21 1 0
BITMAP
0C70
0C70
0000
0000
0000
07C0
1FF0
3838
701C
600C
E00E
E006
E006
C006
E006
E00E
600C
701C
3838
1FF0
07C0
ENDCHAR
STARTCHAR 00F7
ENCODING 247
SWIDTH 548 0
DWIDTH 16 0
BBX 12 9 2 6
BITMAP
0600
0600
0000
FFF0
FFF0
0000
0000
0600
0600
ENDCHAR
STARTCHAR 00F8
ENCODING 248
SWIDTH 582 0
DWIDTH 17 0
BBX 16 16 1 0
BITMAP
07E2
1FFF
383E
701C
603E
E07E
E0C6
C186
C306
E606
EC0E
780C
701C
7838
FFF0
47C0
ENDCHAR
STARTCHAR 00F9
ENCODING 249
SWIDTH 582 0
DWIDTH 17 0
BBX 13 23 2 0
BITMAP
0C00
0600
0600
0600
0300
0000
0000
C018
C018
C018
C018
C018
C018
C018
C018
C018
C018
C018
E018
E038
7078
3FD8
0F98
ENDCHAR
STARTCHAR 00FA
ENCODING 250
SWIDTH 582 0
DWIDTH 17 0
BBX 13 23 2 0
BITMAP
0180
0180
0300
0300
0200
0000
0000
C018
C018
C018
C018
C018
C018
C018
C018
C018
C018
C018
E018
E038
7078
3FD8
0F98
ENDCHAR
STARTCHAR 00FB
ENCODING 251
SWIDTH 582 0
DWIDTH 17 0
BBX 13 22 2 0
BITMAP
0700
0D80
18C0
30C0
0000
0000
C018
C018
C018
C018
C018
C018
C018
C018
C018
C018
C018
E018
E038
7078
3FD8
0F98
ENDCHAR
STARTCHAR 00FC
ENCODING 252
SWIDTH 582 0
DWIDTH 17 0
BBX 13 21 2 0
BITMAP
18C0
18C0
0000
0000
0000
C018
C018
C018
C018
C018
C018
C018
C018
C018
C018
C018
E018
E038
7078
3FD8
0F98
ENDCHAR
STARTCHAR 00FD
ENCODING 253
SWIDTH 514 0
DWIDTH 15 0
BBX 14 30 1 -7
BITMAP
0180
0180
0100
0300
0300
0000
0000
C00C
C018
E018
6038
7030
3030
3060
1860
1860
1CC0
0CC0
0DC0
0780
0780
0780
0300
0300
0600
0600
0E00
0C00
0C00
1C00
ENDCHAR
STARTCHAR 00FE
ENCODING 254
SWIDTH 582 0
DWIDTH 17 0
BBX 14 28 2 -7
BITMAP
C000
C000
C000
C000
C000
C7C0
DFE0
F870
E038
E01C
C01C
C00C
C00C
C00C
C00C
C01C
E018
E038
F870
DFE0
CFC0
C000
C000
C000
C000
C000
C000
C000
ENDCHAR
STARTCHAR 00FF
ENCODING 255
SWIDTH 514 0
DWIDTH 15 0
BBX 14 28 1 -7
BITMAP
18E0
18E0
0000
0000
0000
C00C
C018
E018
6038
7030
3030
3060
1860
1860
1CC0
0CC0
0DC0
0780
0780
0780
0300
0300
0600
0600
0E00
0C00
0C00
1C00
ENDCHAR
ENDFONT
